# xmcd CD database file generated by MAGIX-FreeDB-MP3_Maker_12 v2.0beta1
# 
# Track frame offsets:
#      150
#      20995
#      35552
#      54862
#      72187
#      91245
#      109985
#      127690
#      145830
#      164547
#      182375
#      205935
# 
# Disc length: 2929 seconds
# 
# Revision: 0 
# Processed by: cddbd v1.5.2PL0 Copyright (c) Steve Scherf et al.
# Submitted via: MAGIX-FreeDB-MP3_Maker_12 v2.0beta1
# 
DISCID=a10b6f0c
DTITLE=Verschiedene Interpreten - E gschänkte Tag
DYEAR=1989
DGENRE=Volksmusik
TTITLE0=Jodlerklub Oberhofen - E gschänkte Tag
TTITLE1=Jodelduett HeidiKoller/Ruedi Stähli - Mys chlyne Veieli
TTITLE2=Jodlerklub Oberhofen - Güggisgrat-Jutz
TTITLE3=Jodelduett HeidiKoller/Ruedi Stähli - Lengizyti
TTITLE4=Jodlerklub Oberhofen - Jung sy!
TTITLE5=Jodelduett HeidiKoller/Ruedi Stähli - Chüejerzyt
TTITLE6=Jodlerklub Oberhofen - Oberländer-Chüejerjutz
TTITLE7=Jodelduett HeidiKoller/Ruedi Stähli - Sing doch eis für mi!
TTITLE8=Jodlerklub Oberhofen - Mys Aelpli
TTITLE9=Jodelduett HeidiKoller/Ruedi Stähli - Myner Bärge
TTITLE10=Jodlerklub Oberhofen - Früeligsgloube
TTITLE11=Jodelduett HeidiKoller/Ruedi Stähli - Es Schätzeli?
EXTD=
EXTT0=
EXTT1=
EXTT2=
EXTT3=
EXTT4=
EXTT5=
EXTT6=
EXTT7=
EXTT8=
EXTT9=
EXTT10=
EXTT11=
PLAYORDER=
